<svg width="48" height="48" viewBox="0 0 48 48" fill="none" xmlns="http://www.w3.org/2000/svg">
  <!-- Background circle -->
  <circle cx="24" cy="24" r="24" fill="#2F5DFF"/>
  
  <!-- Calendar base -->
  <rect x="12" y="16" width="24" height="20" rx="2" fill="white"/>
  
  <!-- Calendar top bar -->
  <rect x="12" y="16" width="24" height="6" rx="2" fill="white"/>
  
  <!-- Calendar holes -->
  <circle cx="16" cy="19" r="1" fill="#2F5DFF"/>
  <circle cx="20" cy="19" r="1" fill="#2F5DFF"/>
  <circle cx="24" cy="19" r="1" fill="#2F5DFF"/>
  <circle cx="28" cy="19" r="1" fill="#2F5DFF"/>
  <circle cx="32" cy="19" r="1" fill="#2F5DFF"/>
  
  <!-- Calendar grid lines -->
  <line x1="12" y1="26" x2="36" y2="26" stroke="#E6EBF2" stroke-width="1"/>
  <line x1="12" y1="30" x2="36" y2="30" stroke="#E6EBF2" stroke-width="1"/>
  <line x1="12" y1="34" x2="36" y2="34" stroke="#E6EBF2" stroke-width="1"/>
  
  <!-- B letter -->
  <path d="M16 28 L20 28 Q22 28 22 30 Q22 32 20 32 L16 32 L16 28 Z" fill="#2F5DFF"/>
  <path d="M16 32 L20 32 Q22 32 22 34 Q22 36 20 36 L16 36 L16 32 Z" fill="#2F5DFF"/>
  
  <!-- Check mark -->
  <path d="M28 30 L30 32 L34 28" stroke="#17B6A5" stroke-width="2" stroke-linecap="round" stroke-linejoin="round"/>
</svg>
